<svg width="101" height="84" viewBox="0 0 101 84" fill="none" xmlns="http://www.w3.org/2000/svg">
<path d="M0.4375 35V0.640625H3.88281V35H0.4375ZM8.00781 22.5547C8.00781 18.2578 8.90625 15.0156 10.7031 12.8281C12.5156 10.6406 14.8047 9.54688 17.5703 9.54688C20.2891 9.54688 22.5625 10.6406 24.3906 12.8281C26.2188 15.0156 27.1328 18.1719 27.1328 22.2969C27.1328 26.7656 26.2344 30.0938 24.4375 32.2812C22.6406 34.4688 20.3516 35.5625 17.5703 35.5625C14.8359 35.5625 12.5547 34.4688 10.7266 32.2812C8.91406 30.0781 8.00781 26.8359 8.00781 22.5547ZM11.5469 22.5547C11.5469 25.7734 12.1328 28.1719 13.3047 29.75C14.4766 31.3125 15.9297 32.0938 17.6641 32.0938C19.2891 32.0938 20.6797 31.3047 21.8359 29.7266C23.0078 28.1328 23.5938 25.7422 23.5938 22.5547C23.5938 19.3516 23.0078 16.9688 21.8359 15.4062C20.6641 13.8281 19.2109 13.0391 17.4766 13.0391C15.8359 13.0391 14.4375 13.8281 13.2812 15.4062C12.125 16.9844 11.5469 19.3672 11.5469 22.5547ZM31.1875 35V10.1094H34.3047V13.8828C35.1016 12.1328 35.8281 10.9766 36.4844 10.4141C37.1562 9.83594 37.9062 9.54688 38.7344 9.54688C39.8906 9.54688 41.0703 10 42.2734 10.9062L41.1016 14.8203C40.2422 14.2109 39.4062 13.9062 38.5938 13.9062C37.8594 13.9062 37.1875 14.1641 36.5781 14.6797C35.9688 15.1953 35.5391 15.9141 35.2891 16.8359C34.8516 18.4453 34.6328 20.1562 34.6328 21.9688V35H31.1875ZM58.2812 26.9844L61.8438 27.5234C61.25 30.1797 60.1719 32.1875 58.6094 33.5469C57.0625 34.8906 55.1406 35.5625 52.8438 35.5625C49.9531 35.5625 47.6094 34.4688 45.8125 32.2812C44.0312 30.0781 43.1406 26.9062 43.1406 22.7656C43.1406 18.4688 44.0391 15.1953 45.8359 12.9453C47.6484 10.6797 49.9375 9.54688 52.7031 9.54688C55.3438 9.54688 57.5469 10.6562 59.3125 12.875C61.0781 15.0938 61.9609 18.3047 61.9609 22.5078L61.9375 23.6328H46.7031C46.8438 26.4297 47.4922 28.5391 48.6484 29.9609C49.8047 31.3828 51.2109 32.0938 52.8672 32.0938C55.4609 32.0938 57.2656 30.3906 58.2812 26.9844ZM46.9141 20.1641H58.3047C58.1484 18.0078 57.6875 16.3984 56.9219 15.3359C55.8125 13.7891 54.3984 13.0156 52.6797 13.0156C51.1328 13.0156 49.8125 13.6641 48.7188 14.9609C47.625 16.2422 47.0234 17.9766 46.9141 20.1641ZM66.25 35V10.1094H69.3438V13.6016C70.0312 12.3047 70.9141 11.3047 71.9922 10.6016C73.0703 9.89844 74.25 9.54688 75.5312 9.54688C76.9688 9.54688 78.1797 9.92188 79.1641 10.6719C80.1641 11.4062 80.875 12.4844 81.2969 13.9062C82.1094 12.4531 83.0391 11.3672 84.0859 10.6484C85.1484 9.91406 86.3203 9.54688 87.6016 9.54688C89.5547 9.54688 91.0938 10.2109 92.2188 11.5391C93.3438 12.8672 93.9062 14.9922 93.9062 17.9141V35H90.4609V19.3203C90.4609 17.5391 90.3281 16.2812 90.0625 15.5469C89.8125 14.7969 89.3984 14.2188 88.8203 13.8125C88.2422 13.4062 87.5938 13.2031 86.875 13.2031C85.3906 13.2031 84.1797 13.7969 83.2422 14.9844C82.3047 16.1562 81.8359 18.0078 81.8359 20.5391V35H78.3672V18.8281C78.3672 16.7656 78.0469 15.3125 77.4062 14.4688C76.7812 13.625 75.9141 13.2031 74.8047 13.2031C73.2266 13.2031 71.9766 13.8438 71.0547 15.125C70.1484 16.3906 69.6953 18.7109 69.6953 22.0859V35H66.25Z" fill="#FF0000"/>
<path d="M0.53125 44.4922V39.6406H3.97656V44.4922H0.53125ZM0.53125 74V49.1094H3.97656V74H0.53125ZM9.29688 83.5391V49.1094H12.4609V52.3438C13.2422 51 14.1094 50.0312 15.0625 49.4375C16.0156 48.8438 17.1094 48.5469 18.3438 48.5469C19.9531 48.5469 21.4062 49.0234 22.7031 49.9766C24 50.9297 25.0391 52.3828 25.8203 54.3359C26.6172 56.2734 27.0156 58.6094 27.0156 61.3438C27.0156 65.5781 26.125 68.8438 24.3438 71.1406C22.5781 73.4219 20.5 74.5625 18.1094 74.5625C17.0469 74.5625 16.0547 74.2891 15.1328 73.7422C14.2109 73.1953 13.4141 72.4219 12.7422 71.4219V83.5391H9.29688ZM12.4141 61.6953C12.4141 64.9141 12.9531 67.2891 14.0312 68.8203C15.1094 70.3359 16.4141 71.0938 17.9453 71.0938C19.4141 71.0938 20.7031 70.3047 21.8125 68.7266C22.9219 67.1484 23.4766 64.7109 23.4766 61.4141C23.4766 58.1641 22.9375 55.7578 21.8594 54.1953C20.7812 52.6328 19.4688 51.8516 17.9219 51.8516C16.5312 51.8516 15.2656 52.6953 14.125 54.3828C12.9844 56.0547 12.4141 58.4922 12.4141 61.6953ZM29.875 66.5703L33.2969 65.9141C33.5 67.6641 34.0547 68.9688 34.9609 69.8281C35.8672 70.6719 37.0703 71.0938 38.5703 71.0938C40.0703 71.0938 41.2266 70.7266 42.0391 69.9922C42.8672 69.2422 43.2812 68.2969 43.2812 67.1562C43.2812 66.1719 42.9297 65.4062 42.2266 64.8594C41.7422 64.4844 40.5703 64.0156 38.7109 63.4531C36.0234 62.625 34.2266 61.9219 33.3203 61.3438C32.4141 60.7656 31.7109 59.9922 31.2109 59.0234C30.7109 58.0547 30.4609 56.9531 30.4609 55.7188C30.4609 53.5938 31.1406 51.8672 32.5 50.5391C33.8594 49.2109 35.7422 48.5469 38.1484 48.5469C39.6641 48.5469 40.9922 48.8203 42.1328 49.3672C43.2891 49.9141 44.1719 50.6484 44.7812 51.5703C45.3906 52.4922 45.8125 53.8125 46.0469 55.5312L42.6719 56.0938C42.3594 53.375 40.8828 52.0156 38.2422 52.0156C36.7422 52.0156 35.625 52.3203 34.8906 52.9297C34.1562 53.5234 33.7891 54.2891 33.7891 55.2266C33.7891 56.1484 34.1406 56.875 34.8438 57.4062C35.2656 57.7188 36.5156 58.2188 38.5938 58.9062C41.4531 59.8281 43.3047 60.5625 44.1484 61.1094C44.9922 61.6406 45.6484 62.375 46.1172 63.3125C46.5859 64.2344 46.8203 65.3359 46.8203 66.6172C46.8203 68.9922 46.0625 70.9141 44.5469 72.3828C43.0469 73.8516 40.9922 74.5859 38.3828 74.5859C33.4922 74.5859 30.6562 71.9141 29.875 66.5703ZM64.2578 74V70.3438C63.4609 71.75 62.5234 72.8047 61.4453 73.5078C60.3672 74.2109 59.1484 74.5625 57.7891 74.5625C56.1797 74.5625 54.8047 74.1328 53.6641 73.2734C52.5234 72.3984 51.7578 71.2969 51.3672 69.9688C50.9922 68.6406 50.8047 66.8281 50.8047 64.5312V49.1094H54.25V62.9141C54.25 65.4766 54.375 67.1953 54.625 68.0703C54.8906 68.9297 55.3672 69.625 56.0547 70.1562C56.7578 70.6719 57.5547 70.9297 58.4453 70.9297C60.1016 70.9297 61.4609 70.25 62.5234 68.8906C63.4297 67.7188 63.8828 65.5703 63.8828 62.4453V49.1094H67.3516V74H64.2578ZM72.8125 74V49.1094H75.9062V52.6016C76.5938 51.3047 77.4766 50.3047 78.5547 49.6016C79.6328 48.8984 80.8125 48.5469 82.0938 48.5469C83.5312 48.5469 84.7422 48.9219 85.7266 49.6719C86.7266 50.4062 87.4375 51.4844 87.8594 52.9062C88.6719 51.4531 89.6016 50.3672 90.6484 49.6484C91.7109 48.9141 92.8828 48.5469 94.1641 48.5469C96.1172 48.5469 97.6562 49.2109 98.7812 50.5391C99.9062 51.8672 100.469 53.9922 100.469 56.9141V74H97.0234V58.3203C97.0234 56.5391 96.8906 55.2812 96.625 54.5469C96.375 53.7969 95.9609 53.2188 95.3828 52.8125C94.8047 52.4062 94.1562 52.2031 93.4375 52.2031C91.9531 52.2031 90.7422 52.7969 89.8047 53.9844C88.8672 55.1562 88.3984 57.0078 88.3984 59.5391V74H84.9297V57.8281C84.9297 55.7656 84.6094 54.3125 83.9688 53.4688C83.3438 52.625 82.4766 52.2031 81.3672 52.2031C79.7891 52.2031 78.5391 52.8438 77.6172 54.125C76.7109 55.3906 76.2578 57.7109 76.2578 61.0859V74H72.8125Z" fill="#14FF00"/>
</svg>
