<svg width="16" height="16" viewBox="0 0 16 16" fill="none" xmlns="http://www.w3.org/2000/svg">
<path d="M7.02441 15V13.8223C6.79004 14.2734 6.48828 14.6191 6.11914 14.8594C5.75 15.0938 5.35156 15.2109 4.92383 15.2109C4.02148 15.2109 3.23926 14.7861 2.57715 13.9365C1.9209 13.0811 1.59277 11.8799 1.59277 10.333C1.59277 9.27246 1.73926 8.37305 2.03223 7.63477C2.3252 6.89648 2.71484 6.34863 3.20117 5.99121C3.69336 5.63379 4.23828 5.45508 4.83594 5.45508C5.26367 5.45508 5.65918 5.56934 6.02246 5.79785C6.3916 6.02051 6.69629 6.33398 6.93652 6.73828V2.11523H8.2373V15H7.02441ZM2.91992 10.3418C2.91992 11.5488 3.12793 12.4453 3.54395 13.0312C3.96582 13.6172 4.45508 13.9102 5.01172 13.9102C5.5625 13.9102 6.04004 13.6289 6.44434 13.0664C6.84863 12.5039 7.05078 11.6543 7.05078 10.5176C7.05078 9.21094 6.84863 8.25879 6.44434 7.66113C6.04004 7.05762 5.53027 6.75586 4.91504 6.75586C4.37012 6.75586 3.90137 7.0459 3.50879 7.62598C3.11621 8.2002 2.91992 9.10547 2.91992 10.3418ZM12.5527 3.93457V2.11523H13.8447V3.93457H12.5527ZM12.5527 15V5.66602H13.8447V15H12.5527Z" fill="#01E409"/>
</svg>
